<?xml version="1.0" encoding="utf-8"?>
<!-- Generator: Adobe Illustrator 21.1.0, SVG Export Plug-In . SVG Version: 6.00 Build 0)  -->
<svg version="1.1" id="Layer_1" xmlns="http://www.w3.org/2000/svg" xmlns:xlink="http://www.w3.org/1999/xlink" x="0px" y="0px"
	 viewBox="0 0 18 18" style="enable-background:new 0 0 18 18;" xml:space="preserve">
<style type="text/css">
	.st0{fill:#A0E5F4;}
	.st1{fill:#BBBBBB;}
</style>
<path class="st0" d="M15.1,3.4L13.5,5c-1-1.4-2.7-2.3-4.6-2.3c-2.2,0-4.1,1.2-5,3.1c0,0,0,0.1,0,0.1c0,0,0,0,0,0l0.1,0L3.9,6
	l4.5,3.5l0,3.3L3.3,8.5L3.2,8.4L1.3,6.8L1.2,6.7l0,0l-0.1,0c0-0.1,0-0.2,0.1-0.3c0.9-3.4,4-5.9,7.7-6C11.4,0.5,13.6,1.6,15.1,3.4z"
	/>
<g>
	<path class="st1" d="M15.4,4.2l-6,5.2v3.4L14.6,8c0,0.1,0,0.2,0,0.4c0,3.1-2.5,5.7-5.7,5.7c-2.4,0-4.5-1.5-5.3-3.6L1,8.3
		c0,0,0,0.1,0,0.1c0,4.4,3.6,7.9,7.9,7.9s7.9-3.6,7.9-7.9c0-0.7-0.1-1.5-0.3-2.1C16.6,6.3,16.1,4.7,15.4,4.2L15.4,4.2z"/>
</g>
</svg>
